<?xml version="1.0" standalone="no"?>
<!DOCTYPE svg PUBLIC "-//W3C//DTD SVG 20010904//EN"
 "http://www.w3.org/TR/2001/REC-SVG-20010904/DTD/svg10.dtd">
<svg version="1.0" xmlns="http://www.w3.org/2000/svg"
 width="700.000000pt" height="700.000000pt" viewBox="0 0 700.000000 700.000000"
 preserveAspectRatio="xMidYMid meet">
<metadata>
Created by potrace 1.11, written by Peter Selinger 2001-2013
</metadata>
<g transform="translate(0.000000,700.000000) scale(0.100000,-0.100000)"
fill="#000000" stroke="none">
<path d="M3347 6550 l-138 -90 -153 60 c-84 33 -159 60 -167 60 -7 0 -66 -53
-131 -117 l-117 -117 -163 29 c-90 15 -167 29 -173 31 -5 2 -55 -62 -110 -141
l-99 -145 -171 0 -172 0 -69 -160 -69 -159 -75 -17 c-41 -9 -118 -26 -170 -38
l-94 -21 -38 -169 c-21 -93 -39 -170 -40 -171 -2 -1 -74 -32 -161 -69 l-157
-69 0 -171 0 -172 -143 -99 -143 -99 30 -174 30 -173 -117 -117 c-64 -65 -117
-123 -117 -130 0 -7 27 -82 60 -167 l60 -154 -90 -140 c-49 -77 -90 -144 -90
-150 0 -6 40 -74 90 -151 l89 -140 -59 -155 c-33 -85 -60 -160 -60 -167 0 -7
53 -65 117 -130 l117 -117 -30 -173 -30 -173 143 -100 143 -99 0 -171 0 -171
158 -69 c86 -38 158 -69 160 -70 1 -1 19 -78 40 -171 l38 -168 168 -38 c93
-20 169 -38 171 -40 1 -2 33 -74 70 -161 l69 -157 171 0 172 0 99 -145 c54
-79 104 -143 109 -141 6 2 83 16 173 32 l162 28 119 -117 c65 -64 123 -117
129 -117 6 0 81 27 166 60 l155 60 140 -90 c77 -50 145 -90 151 -90 6 0 74 40
151 90 l140 90 155 -60 c85 -33 160 -60 166 -60 6 0 64 53 129 117 l119 117
162 -28 c90 -16 168 -30 173 -32 6 -2 55 62 109 141 l99 145 172 0 171 0 69
157 c37 87 69 159 70 161 1 1 78 20 171 40 l169 38 37 169 c21 92 39 169 40
170 2 1 74 32 161 70 l157 69 0 171 0 171 143 99 143 100 -30 173 -30 173 117
117 c64 65 117 123 117 130 0 7 -27 82 -60 167 l-59 155 89 140 c50 77 90 145
90 151 0 6 -41 73 -90 150 l-90 140 60 154 c33 85 60 160 60 167 0 7 -53 65
-117 130 l-117 117 30 173 30 174 -143 99 -143 99 0 172 0 171 -157 69 c-87
37 -159 68 -161 69 -1 1 -19 78 -40 171 l-38 169 -94 21 c-52 12 -129 29 -170
38 l-75 17 -69 159 -69 160 -172 0 -171 0 -99 145 c-55 79 -104 143 -110 141
-5 -2 -83 -16 -173 -31 l-163 -29 -117 117 c-65 64 -124 117 -131 117 -8 0
-83 -27 -167 -60 l-153 -60 -140 90 c-77 50 -146 90 -153 90 -7 -1 -75 -41
-151 -90z m197 -514 c65 -138 81 -206 81 -346 0 -139 -13 -183 -74 -252 l-31
-36 0 -714 0 -714 66 -11 c95 -17 169 -56 245 -132 75 -75 116 -152 132 -248
l11 -63 714 0 714 0 36 31 c62 54 116 73 228 77 80 3 119 0 185 -17 81 -20
259 -97 259 -111 0 -14 -183 -92 -262 -112 -63 -16 -103 -19 -182 -16 -112 4
-166 23 -228 77 l-36 31 -714 0 -714 0 -11 -63 c-16 -94 -58 -172 -133 -247
-75 -75 -153 -117 -247 -133 l-63 -11 0 -714 0 -714 31 -36 c62 -70 74 -112
74 -257 -1 -114 -4 -139 -27 -205 -31 -90 -87 -210 -98 -210 -12 0 -77 142
-102 222 -19 60 -23 96 -23 198 0 139 13 183 74 252 l31 36 0 714 0 714 -63
11 c-94 16 -172 58 -248 133 -75 74 -116 151 -132 247 l-11 63 -714 0 -714 0
-36 -31 c-62 -54 -116 -73 -228 -77 -79 -3 -119 0 -182 16 -79 20 -262 98
-262 112 0 14 178 91 259 111 66 17 105 20 185 17 112 -4 166 -23 228 -77 l36
-31 714 0 714 0 11 63 c16 96 57 173 132 248 76 76 150 115 245 132 l66 11 0
714 0 714 -31 36 c-61 69 -74 113 -74 252 0 103 4 138 24 200 27 87 88 220
101 220 4 0 24 -33 44 -74z m-551 -415 c34 -16 76 -55 145 -133 53 -60 108
-128 122 -151 l25 -42 3 -506 c3 -501 3 -506 -18 -532 -19 -24 -28 -27 -83
-27 -69 0 -202 30 -404 91 -74 22 -137 38 -140 36 -2 -3 14 -66 36 -140 61
-202 91 -335 91 -404 0 -55 -3 -64 -27 -83 -26 -21 -31 -21 -532 -18 -466 3
-509 4 -539 21 -18 10 -86 65 -151 122 -178 156 -200 219 -140 400 41 124 159
362 236 477 276 411 662 718 1113 883 114 42 186 44 263 6z m1264 -2 c48 -17
151 -61 228 -99 364 -177 664 -439 893 -780 78 -117 202 -365 241 -485 60
-181 38 -244 -140 -400 -65 -57 -133 -112 -151 -122 -30 -17 -73 -18 -539 -21
-501 -3 -506 -3 -532 18 -50 39 -37 144 55 453 27 93 47 171 45 174 -3 2 -66
-14 -140 -36 -202 -61 -335 -91 -404 -91 -55 0 -64 3 -83 27 -21 26 -21 31
-18 532 l3 506 25 42 c31 52 193 237 231 264 79 56 161 62 286 18z m-1513
-2350 c23 -18 26 -27 26 -82 0 -70 -31 -209 -92 -405 -22 -73 -38 -135 -35
-138 3 -3 66 13 140 35 202 61 335 91 404 91 55 0 64 -3 83 -27 21 -26 21 -31
18 -532 -3 -466 -4 -509 -21 -539 -10 -18 -65 -86 -122 -151 -114 -131 -160
-161 -252 -169 -68 -6 -198 38 -383 129 -453 224 -804 576 -1029 1029 -88 177
-135 317 -129 385 8 90 39 136 168 250 120 105 143 122 189 136 14 4 247 8
517 8 483 1 492 1 518 -20z m2584 -2 c18 -10 86 -65 151 -122 130 -114 161
-160 169 -250 6 -68 -38 -197 -128 -380 -225 -460 -579 -814 -1035 -1035 -195
-95 -305 -133 -375 -128 -94 7 -139 37 -255 169 -57 65 -112 133 -122 151 -17
30 -18 73 -21 539 -3 501 -3 506 18 532 19 24 28 27 83 27 69 0 202 -30 404
-91 74 -22 137 -38 140 -36 2 3 -18 81 -45 174 -64 213 -82 297 -82 372 0 53
3 62 27 81 26 21 31 21 532 18 466 -3 509 -4 539 -21z"/>
<path d="M3420 3890 c-114 -24 -223 -108 -273 -210 -120 -245 23 -524 291
-571 164 -29 342 62 415 211 127 259 -40 552 -325 574 -35 3 -83 1 -108 -4z
m165 -55 c126 -33 219 -129 251 -258 29 -116 -5 -235 -92 -321 -53 -53 -112
-83 -192 -98 -122 -23 -268 40 -337 145 -34 51 -65 146 -65 197 0 51 31 146
65 197 42 63 118 116 195 137 72 19 103 19 175 1z"/>
</g>
</svg>
